<mxfile host="app.diagrams.net" modified="2021-07-27T22:38:35.963Z" agent="5.0 (Macintosh; Intel Mac OS X 10_15_7) AppleWebKit/537.36 (KHTML, like Gecko) Chrome/91.0.4472.114 Safari/537.36" etag="UR1vtqrfuCkUT8v2q2gw" version="14.9.2" type="github">
  <diagram id="XPXA33im46vD8CcBkLkm" name="Page-1">
    <mxGraphModel dx="450" dy="292" grid="1" gridSize="10" guides="1" tooltips="1" connect="1" arrows="1" fold="1" page="1" pageScale="1" pageWidth="850" pageHeight="1100" math="0" shadow="0">
      <root>
        <mxCell id="0" />
        <mxCell id="1" parent="0" />
        <mxCell id="C7qt_DMOWTr_ABTMKOD9-2" value="To Do List" style="text;html=1;strokeColor=none;fillColor=none;align=center;verticalAlign=middle;whiteSpace=wrap;rounded=0;" vertex="1" parent="1">
          <mxGeometry x="260" y="50" width="40" height="20" as="geometry" />
        </mxCell>
        <mxCell id="C7qt_DMOWTr_ABTMKOD9-4" value="" style="whiteSpace=wrap;html=1;aspect=fixed;fillColor=#fff2cc;strokeColor=#d6b656;" vertex="1" parent="1">
          <mxGeometry x="260" y="80" width="540" height="540" as="geometry" />
        </mxCell>
        <mxCell id="C7qt_DMOWTr_ABTMKOD9-5" value="context:" style="text;html=1;strokeColor=none;fillColor=none;align=center;verticalAlign=middle;whiteSpace=wrap;rounded=0;" vertex="1" parent="1">
          <mxGeometry x="270" y="90" width="40" height="20" as="geometry" />
        </mxCell>
        <mxCell id="C7qt_DMOWTr_ABTMKOD9-14" style="edgeStyle=orthogonalEdgeStyle;rounded=0;orthogonalLoop=1;jettySize=auto;html=1;exitX=0.5;exitY=1;exitDx=0;exitDy=0;" edge="1" parent="1" source="C7qt_DMOWTr_ABTMKOD9-8" target="C7qt_DMOWTr_ABTMKOD9-13">
          <mxGeometry relative="1" as="geometry" />
        </mxCell>
        <mxCell id="C7qt_DMOWTr_ABTMKOD9-8" value="index" style="rounded=0;whiteSpace=wrap;html=1;" vertex="1" parent="1">
          <mxGeometry x="430" y="110" width="120" height="60" as="geometry" />
        </mxCell>
        <mxCell id="C7qt_DMOWTr_ABTMKOD9-23" style="edgeStyle=orthogonalEdgeStyle;rounded=0;orthogonalLoop=1;jettySize=auto;html=1;exitX=0.5;exitY=1;exitDx=0;exitDy=0;entryX=0.5;entryY=0;entryDx=0;entryDy=0;" edge="1" parent="1" source="C7qt_DMOWTr_ABTMKOD9-13" target="C7qt_DMOWTr_ABTMKOD9-16">
          <mxGeometry relative="1" as="geometry" />
        </mxCell>
        <mxCell id="C7qt_DMOWTr_ABTMKOD9-13" value="app" style="rounded=0;whiteSpace=wrap;html=1;" vertex="1" parent="1">
          <mxGeometry x="430" y="210" width="120" height="60" as="geometry" />
        </mxCell>
        <mxCell id="C7qt_DMOWTr_ABTMKOD9-15" value="can render" style="text;html=1;strokeColor=none;fillColor=none;align=center;verticalAlign=middle;whiteSpace=wrap;rounded=0;" vertex="1" parent="1">
          <mxGeometry x="500" y="180" width="40" height="20" as="geometry" />
        </mxCell>
        <mxCell id="C7qt_DMOWTr_ABTMKOD9-16" value="todo" style="swimlane;fontStyle=0;childLayout=stackLayout;horizontal=1;startSize=26;horizontalStack=0;resizeParent=1;resizeParentMax=0;resizeLast=0;collapsible=1;marginBottom=0;" vertex="1" parent="1">
          <mxGeometry x="420" y="310" width="140" height="130" as="geometry" />
        </mxCell>
        <mxCell id="C7qt_DMOWTr_ABTMKOD9-17" value="state variables" style="text;align=left;verticalAlign=top;spacingLeft=4;spacingRight=4;overflow=hidden;rotatable=0;points=[[0,0.5],[1,0.5]];portConstraint=eastwest;fillColor=#f5f5f5;strokeColor=#666666;fontColor=#333333;" vertex="1" parent="C7qt_DMOWTr_ABTMKOD9-16">
          <mxGeometry y="26" width="140" height="26" as="geometry" />
        </mxCell>
        <mxCell id="C7qt_DMOWTr_ABTMKOD9-18" value="list {array}" style="text;align=left;verticalAlign=top;spacingLeft=4;spacingRight=4;overflow=hidden;rotatable=0;points=[[0,0.5],[1,0.5]];portConstraint=eastwest;fillColor=#ffffff;" vertex="1" parent="C7qt_DMOWTr_ABTMKOD9-16">
          <mxGeometry y="52" width="140" height="26" as="geometry" />
        </mxCell>
        <mxCell id="C7qt_DMOWTr_ABTMKOD9-19" value="incomplete {array}" style="text;align=left;verticalAlign=top;spacingLeft=4;spacingRight=4;overflow=hidden;rotatable=0;points=[[0,0.5],[1,0.5]];portConstraint=eastwest;fillColor=#ffffff;" vertex="1" parent="C7qt_DMOWTr_ABTMKOD9-16">
          <mxGeometry y="78" width="140" height="26" as="geometry" />
        </mxCell>
        <mxCell id="C7qt_DMOWTr_ABTMKOD9-22" value="handleChange {func}" style="text;align=left;verticalAlign=top;spacingLeft=4;spacingRight=4;overflow=hidden;rotatable=0;points=[[0,0.5],[1,0.5]];portConstraint=eastwest;fillColor=#ffffff;" vertex="1" parent="C7qt_DMOWTr_ABTMKOD9-16">
          <mxGeometry y="104" width="140" height="26" as="geometry" />
        </mxCell>
        <mxCell id="C7qt_DMOWTr_ABTMKOD9-24" value="can render" style="text;html=1;strokeColor=none;fillColor=none;align=center;verticalAlign=middle;whiteSpace=wrap;rounded=0;" vertex="1" parent="1">
          <mxGeometry x="499" y="280" width="40" height="20" as="geometry" />
        </mxCell>
        <mxCell id="C7qt_DMOWTr_ABTMKOD9-27" value="list" style="swimlane;fontStyle=0;childLayout=stackLayout;horizontal=1;startSize=26;horizontalStack=0;resizeParent=1;resizeParentMax=0;resizeLast=0;collapsible=1;marginBottom=0;" vertex="1" parent="1">
          <mxGeometry x="640" y="310" width="140" height="78" as="geometry" />
        </mxCell>
        <mxCell id="C7qt_DMOWTr_ABTMKOD9-28" value="props:" style="text;align=left;verticalAlign=top;spacingLeft=4;spacingRight=4;overflow=hidden;rotatable=0;points=[[0,0.5],[1,0.5]];portConstraint=eastwest;fillColor=#f5f5f5;strokeColor=#666666;fontColor=#333333;" vertex="1" parent="C7qt_DMOWTr_ABTMKOD9-27">
          <mxGeometry y="26" width="140" height="26" as="geometry" />
        </mxCell>
        <mxCell id="C7qt_DMOWTr_ABTMKOD9-29" value="list {array}" style="text;align=left;verticalAlign=top;spacingLeft=4;spacingRight=4;overflow=hidden;rotatable=0;points=[[0,0.5],[1,0.5]];portConstraint=eastwest;fillColor=#ffffff;" vertex="1" parent="C7qt_DMOWTr_ABTMKOD9-27">
          <mxGeometry y="52" width="140" height="26" as="geometry" />
        </mxCell>
        <mxCell id="C7qt_DMOWTr_ABTMKOD9-37" value="form" style="swimlane;fontStyle=0;childLayout=stackLayout;horizontal=1;startSize=26;horizontalStack=0;resizeParent=1;resizeParentMax=0;resizeLast=0;collapsible=1;marginBottom=0;" vertex="1" parent="1">
          <mxGeometry x="640" y="410" width="140" height="130" as="geometry" />
        </mxCell>
        <mxCell id="C7qt_DMOWTr_ABTMKOD9-38" value="props:" style="text;align=left;verticalAlign=top;spacingLeft=4;spacingRight=4;overflow=hidden;rotatable=0;points=[[0,0.5],[1,0.5]];portConstraint=eastwest;fillColor=#f5f5f5;strokeColor=#666666;fontColor=#333333;" vertex="1" parent="C7qt_DMOWTr_ABTMKOD9-37">
          <mxGeometry y="26" width="140" height="26" as="geometry" />
        </mxCell>
        <mxCell id="C7qt_DMOWTr_ABTMKOD9-39" value="handleChange" style="text;align=left;verticalAlign=top;spacingLeft=4;spacingRight=4;overflow=hidden;rotatable=0;points=[[0,0.5],[1,0.5]];portConstraint=eastwest;fillColor=#ffffff;" vertex="1" parent="C7qt_DMOWTr_ABTMKOD9-37">
          <mxGeometry y="52" width="140" height="26" as="geometry" />
        </mxCell>
        <mxCell id="C7qt_DMOWTr_ABTMKOD9-43" value="state variables" style="text;strokeColor=#666666;fillColor=#f5f5f5;align=left;verticalAlign=top;spacingLeft=4;spacingRight=4;overflow=hidden;rotatable=0;points=[[0,0.5],[1,0.5]];portConstraint=eastwest;labelBackgroundColor=#ffffff;fontColor=#333333;" vertex="1" parent="C7qt_DMOWTr_ABTMKOD9-37">
          <mxGeometry y="78" width="140" height="26" as="geometry" />
        </mxCell>
        <mxCell id="C7qt_DMOWTr_ABTMKOD9-44" value="item {object}" style="text;align=left;verticalAlign=top;spacingLeft=4;spacingRight=4;overflow=hidden;rotatable=0;points=[[0,0.5],[1,0.5]];portConstraint=eastwest;labelBackgroundColor=none;fillColor=#ffffff;" vertex="1" parent="C7qt_DMOWTr_ABTMKOD9-37">
          <mxGeometry y="104" width="140" height="26" as="geometry" />
        </mxCell>
        <mxCell id="C7qt_DMOWTr_ABTMKOD9-40" style="edgeStyle=orthogonalEdgeStyle;rounded=0;orthogonalLoop=1;jettySize=auto;html=1;exitX=1;exitY=0.5;exitDx=0;exitDy=0;" edge="1" parent="1" source="C7qt_DMOWTr_ABTMKOD9-22" target="C7qt_DMOWTr_ABTMKOD9-39">
          <mxGeometry relative="1" as="geometry" />
        </mxCell>
        <mxCell id="C7qt_DMOWTr_ABTMKOD9-41" style="edgeStyle=orthogonalEdgeStyle;rounded=0;orthogonalLoop=1;jettySize=auto;html=1;exitX=1;exitY=0.5;exitDx=0;exitDy=0;entryX=0;entryY=0.75;entryDx=0;entryDy=0;" edge="1" parent="1" source="C7qt_DMOWTr_ABTMKOD9-18" target="C7qt_DMOWTr_ABTMKOD9-27">
          <mxGeometry relative="1" as="geometry" />
        </mxCell>
        <mxCell id="C7qt_DMOWTr_ABTMKOD9-47" value="hide/show {bool}" style="text;strokeColor=none;fillColor=none;align=left;verticalAlign=top;spacingLeft=4;spacingRight=4;overflow=hidden;rotatable=0;points=[[0,0.5],[1,0.5]];portConstraint=eastwest;labelBackgroundColor=none;" vertex="1" parent="1">
          <mxGeometry x="264" y="110" width="100" height="26" as="geometry" />
        </mxCell>
        <mxCell id="C7qt_DMOWTr_ABTMKOD9-48" value="number of items {number}" style="text;strokeColor=none;fillColor=none;align=left;verticalAlign=top;spacingLeft=4;spacingRight=4;overflow=hidden;rotatable=0;points=[[0,0.5],[1,0.5]];portConstraint=eastwest;labelBackgroundColor=none;" vertex="1" parent="1">
          <mxGeometry x="264" y="136" width="190" height="26" as="geometry" />
        </mxCell>
        <mxCell id="C7qt_DMOWTr_ABTMKOD9-50" value="sort field {string}" style="text;strokeColor=none;fillColor=none;align=left;verticalAlign=top;spacingLeft=4;spacingRight=4;overflow=hidden;rotatable=0;points=[[0,0.5],[1,0.5]];portConstraint=eastwest;labelBackgroundColor=none;" vertex="1" parent="1">
          <mxGeometry x="264" y="162" width="190" height="26" as="geometry" />
        </mxCell>
      </root>
    </mxGraphModel>
  </diagram>
</mxfile>
